<svg xmlns="http://www.w3.org/2000/svg" viewBox="0 0 22 24"><defs><style>.cls-1{fill:#3fa9f5;}</style></defs><title>Fichier 3</title><g id="Calque_2" data-name="Calque 2"><g id="Layer_1" data-name="Layer 1"><circle class="cls-1" cx="7.52" cy="21.5" r="2.5"/><circle class="cls-1" cx="18.52" cy="21.5" r="2.5"/><path class="cls-1" d="M8,4,7.3,1.14A1.5,1.5,0,0,0,5.85,0H2A2,2,0,0,0,0,2H0A2,2,0,0,0,2,4H3A87.65,87.65,0,0,0,4.74,15.74a1.49,1.49,0,0,0,1.57,1.18l13.5-.84a1.53,1.53,0,0,0,1.4-1.27A74.15,74.15,0,0,0,22,5.52,1.5,1.5,0,0,0,20.49,4Z"/></g></g></svg>